<?xml version="1.0" encoding="iso-8859-1"?>
<!-- Uploaded to: SVG Repo, www.svgrepo.com, Generator: SVG Repo Mixer Tools -->
<svg xmlns="http://www.w3.org/2000/svg" xmlns:xlink="http://www.w3.org/1999/xlink" version="1.1" id="Capa_1"  viewBox="0 0 450 450" xml:space="preserve" width="512" height="512">
<g id="XMLID_986_">
	<path id="XMLID_1047_" style="fill:#E9CC85;" d="M410,75H251.247c-1.521-2.141-3.091-4.088-4.719-5.784   c-3.213-4.421-7.738-7.264-13.502-8.499C231.23,60.246,229.403,60,227.551,60c-0.242,0-0.484,0.012-0.725,0.02   c-0.313-0.007-0.623-0.02-0.942-0.02c-7.137,0-14.11,4.684-20.538,12.954c-0.02,0.025-0.039,0.051-0.059,0.077   c-0.49,0.631-0.974,1.296-1.457,1.969H50c-22.091,0-40,40.294-40,90c0,49.706,17.909,90,40,90h120.86   c-1.564,21.927-4.154,43.974-7.56,63.464c-7.021,40.175-15.512,58.579-21.119,62.406c-2.281,1.558-2.867,4.668-1.31,6.949   c0.968,1.418,2.537,2.181,4.134,2.181c0.971,0,1.953-0.282,2.815-0.871c14.056-9.597,24.162-52.801,29.731-99.347   c5.57,46.546,15.676,89.75,29.731,99.347c0.863,0.589,1.844,0.871,2.815,0.871c1.596,0,3.166-0.763,4.134-2.181   c1.557-2.281,0.971-5.392-1.31-6.949c-5.606-3.827-14.098-22.231-21.119-62.406c-3.406-19.49-5.996-41.537-7.56-63.464h19.591   c6.938,9.779,15.062,15,23.718,15s16.78-5.221,23.718-15H410c22.091,0,40-40.294,40-90C450,115.294,432.091,75,410,75z    M226.759,70.03c1.19,0.032,2.314,0.111,3.333,0.276c2.662,0.624,5.344,2.233,7.967,4.694H217.04   C220.24,71.996,223.528,70.271,226.759,70.03z M227.551,260c-3.489,0-7.062-1.74-10.529-5h21.059   C234.614,258.26,231.041,260,227.551,260z"/>
	<path id="XMLID_1013_" style="fill:#C6AA6D;" d="M11.546,140.148l438.403,20.234c0.034,1.529,0.052,3.069,0.052,4.618   c0,49.706-17.909,90-40,90H50c-22.091,0-40-40.294-40-90C10,156.379,10.54,148.042,11.546,140.148z"/>
	<path id="XMLID_1033_" style="fill:#A99462;" d="M450,165c0,49.706-17.909,90-40,90s-40-40.294-40-90s17.909-90,40-90   S450,115.294,450,165z"/>
	<path id="XMLID_1028_" style="fill:#6E5237;" d="M390,235c-1.908,0-3.784-0.307-5.621-0.889C375.592,217.602,370,192.771,370,165   c0-49.706,17.909-90,40-90c1.908,0,3.784,0.307,5.621,0.889C424.408,92.398,430,117.228,430,145C430,194.705,412.091,235,390,235z"/>
	<path id="XMLID_988_" style="fill:#E9CC85;" d="M410,255H40c-22.091,0-40-40.294-40-90h400C382,205.75,387.909,255,410,255z"/>
	<path id="XMLID_984_" style="fill:#4A3620;" d="M251.269,255c-6.938,9.78-15.062,15-23.718,15   c-12.867,0-24.561-11.518-32.927-32.432c-5.793-14.483-9.646-32.461-11.24-51.972c-0.542,8.042-0.833,16.197-0.833,24.405   c0,34.767,3.458,75.314,9.251,108.464c7.021,40.174,15.512,58.579,21.119,62.406c2.281,1.557,2.867,4.668,1.31,6.949   c-0.968,1.418-2.538,2.181-4.134,2.181c-0.971,0-1.952-0.282-2.815-0.871c-14.056-9.597-24.162-52.802-29.731-99.347   c-5.57,46.546-15.676,89.75-29.731,99.347c-0.862,0.589-1.844,0.871-2.815,0.871c-1.597,0-3.166-0.763-4.134-2.181   c-1.557-2.281-0.971-5.392,1.31-6.949c5.606-3.828,14.098-22.232,21.119-62.406c5.793-33.149,9.251-73.697,9.251-108.464   c0-58.37,14.055-112.855,32.736-136.969c0.02-0.025,0.039-0.051,0.059-0.076C211.775,64.683,218.748,60,225.885,60   c0.319,0,0.628,0.013,0.941,0.02c0.242-0.008,0.483-0.02,0.725-0.02c1.852,0,3.678,0.246,5.475,0.717   c5.764,1.235,10.288,4.077,13.502,8.499c1.627,1.696,3.198,3.644,4.719,5.784h-13.188c-2.623-2.461-5.305-4.07-7.967-4.694   c-1.019-0.164-2.143-0.244-3.333-0.276c-16.345,1.218-34.208,39.877-34.208,94.97c0,55.985,18.445,95,35,95   c3.489,0,7.062-1.74,10.529-5H251.269z"/>
	<path id="XMLID_983_" style="fill:#833C31;" d="M242.539,170c0,24.853-25.193,45-56.269,45S130,194.853,130,170   s25.193-45,56.269-45S242.539,145.147,242.539,170z"/>
	<path id="XMLID_982_" style="fill:#C24E3C;" d="M228.447,170c0,19.33-19.594,35-43.765,35s-43.765-15.67-43.765-35   s19.594-35,43.765-35S228.447,150.67,228.447,170z"/>
	<path id="XMLID_905_" style="fill:#963224;" d="M215.943,170c0,13.807-13.996,25-31.261,25s-31.261-11.193-31.261-25   s13.996-25,31.261-25S215.943,156.193,215.943,170z"/>
	<path id="XMLID_516_" style="fill:#78281E;" d="M214.612,177.224C210.736,187.508,198.805,195,184.682,195   c-17.265,0-31.261-11.193-31.261-25c0-9.328,6.392-17.456,15.859-21.752c-0.862,2.288-1.331,4.711-1.331,7.224   c0,13.807,13.996,25,31.261,25C204.812,180.471,210.065,179.287,214.612,177.224z"/>
</g>















</svg>