<?xml version="1.0" encoding="iso-8859-1"?>
<!-- Uploaded to: SVG Repo, www.svgrepo.com, Generator: SVG Repo Mixer Tools -->
<svg xmlns="http://www.w3.org/2000/svg" xmlns:xlink="http://www.w3.org/1999/xlink" version="1.1" id="Capa_1"  viewBox="0 0 460 460" xml:space="preserve" width="512" height="512">
<g id="XMLID_850_">
	<path id="XMLID_848_" style="fill:#D0C09A;" d="M350,180v180c11.046,0,20,8.954,20,20v10c11.046,0,20,8.954,20,20v10h20   c11.046,0,20,8.954,20,20v15c0,2.761-2.239,5-5,5H35c-2.761,0-5-2.239-5-5v-15c0-11.046,8.954-20,20-20h20v-10   c0-11.046,8.954-20,20-20v-10c0-11.046,8.954-20,20-20V180c-11.046,0-20-8.954-20-20v-10h0c-33.137,0-60-26.863-60-60v0   c0-33.137,26.863-60,60-60h16.667L100,10c0-5.523,4.477-10,10-10h240c5.523,0,10,4.477,10,10l-6.667,20H370   c33.137,0,60,26.863,60,60v0c0,33.137-26.863,60-60,60h0v10C370,171.046,361.046,180,350,180z"/>
	<path id="XMLID_849_" style="fill:#A69A7D;" d="M150,350L150,350c-11.046,0-20-8.954-20-20V210c0-11.046,8.954-20,20-20h0   c11.046,0,20,8.954,20,20v120C170,341.046,161.046,350,150,350z M250,330V210c0-11.046-8.954-20-20-20h0c-11.046,0-20,8.954-20,20   v120c0,11.046,8.954,20,20,20h0C241.046,350,250,341.046,250,330z M330,330V210c0-11.046-8.954-20-20-20h0   c-11.046,0-20,8.954-20,20v120c0,11.046,8.954,20,20,20h0C321.046,350,330,341.046,330,330z M370,380H90v10h280V380z M390,410H70   v10h320V410z M366.631,30.099L366.667,30H93.333l0.036,0.099c10.979,0.608,21.168,4.169,29.792,9.901h213.678   C345.463,34.269,355.652,30.708,366.631,30.099z M325.29,50H134.71c2.744,3.065,5.17,6.417,7.243,10h176.094   C320.12,56.417,322.546,53.065,325.29,50z M90,50c-22.091,0-40,17.909-40,40s17.909,40,40,40s40-17.909,40-40S112.091,50,90,50z    M370,50c-22.091,0-40,17.909-40,40s17.909,40,40,40s40-17.909,40-40S392.091,50,370,50z M310.517,97.764   C286.863,105.533,259.366,110,230,110s-56.863-4.467-80.517-12.236C145.673,127.231,120.504,150,90,150c0,5.523,4.477,10,10,10h260   c5.523,0,10-4.477,10-10C339.496,150,314.327,127.231,310.517,97.764z M30,450v5c0,2.761,2.239,5,5,5h390c2.761,0,5-2.239,5-5v-5   H30z"/>
	<path id="XMLID_786_" style="fill:#7D755F;" d="M110,90c0,11.046-8.954,20-20,20s-20-8.954-20-20s8.954-20,20-20S110,78.954,110,90   z M370,70c-11.046,0-20,8.954-20,20s8.954,20,20,20s20-8.954,20-20S381.046,70,370,70z"/>
</g>















</svg>