<?xml version="1.0" encoding="UTF-8" standalone="no"?>
<svg
   version="1.1"
   x="0px"
   y="0px"
   viewBox="0 0 78.891548 75.700432"
   enable-background="new 0 0 100 100"
   xml:space="preserve"
   id="svg4"
   sodipodi:docname="commun.svg"
   inkscape:version="1.3.2 (091e20ef0f, 2023-11-25)"
   width="78.891548"
   height="75.700432"
   xmlns:inkscape="http://www.inkscape.org/namespaces/inkscape"
   xmlns:sodipodi="http://sodipodi.sourceforge.net/DTD/sodipodi-0.dtd"
   xmlns="http://www.w3.org/2000/svg"
   xmlns:svg="http://www.w3.org/2000/svg"><defs
     id="defs4" /><sodipodi:namedview
     id="namedview4"
     pagecolor="#505050"
     bordercolor="#eeeeee"
     borderopacity="1"
     inkscape:showpageshadow="0"
     inkscape:pageopacity="0"
     inkscape:pagecheckerboard="0"
     inkscape:deskcolor="#505050"
     inkscape:zoom="6.744"
     inkscape:cx="38.849348"
     inkscape:cy="49.303084"
     inkscape:window-width="1920"
     inkscape:window-height="1007"
     inkscape:window-x="1920"
     inkscape:window-y="36"
     inkscape:window-maximized="1"
     inkscape:current-layer="svg4" /><g
     id="g3"
     transform="translate(-11.11,-13.187566)"><g
       id="g2"><g
         id="g1"><path
           d="m 88.891,81.82 -7.07,7.068 -7.801,-7.8 c -13.229,9.761 -33.52,8.71 -45.67,-2.37 l -10.17,10.17 -7.07,-7.068 14.14,-14.141 3.54,3.53 c 9.729,10.16 26.69,11.74 38.13,3.561 L 68.38,74.541 66.99,74.062 50,57.07 l 8.83,-5.312 15.23,15.23 0.479,1.39 0.229,-1.46 c 9.351,-13.68 5.83,-32.351 -7.85,-41.688 -11.439,-8.182 -28.4,-6.602 -38.13,3.56 l -3.54,-3.54 c 13.279,-14.63 36.189,-16.16 51.3,-3.45 15.841,13.17 18,36.681 4.841,52.521 z"
           id="path1"
           style="fill:#f2f2f2" /><polygon
           points="42.93,64.141 35.859,57.07 42.93,50 35.859,42.93 42.93,35.859 50,42.93 57.07,35.859 64.141,42.93 50,57.07 "
           id="polygon1"
           style="fill:#f2f2f2" /></g></g></g></svg>
