<?xml version="1.0" encoding="UTF-8" standalone="no"?>
<svg
   version="1.1"
   x="0px"
   y="0px"
   viewBox="0 0 80.003883 80.005508"
   enable-background="new 0 0 100 100"
   xml:space="preserve"
   id="svg5"
   sodipodi:docname="fashi.svg"
   inkscape:version="1.3.2 (091e20ef0f, 2023-11-25)"
   width="80.003883"
   height="80.005508"
   xmlns:inkscape="http://www.inkscape.org/namespaces/inkscape"
   xmlns:sodipodi="http://sodipodi.sourceforge.net/DTD/sodipodi-0.dtd"
   xmlns="http://www.w3.org/2000/svg"
   xmlns:svg="http://www.w3.org/2000/svg"><defs
     id="defs5" /><sodipodi:namedview
     id="namedview5"
     pagecolor="#505050"
     bordercolor="#eeeeee"
     borderopacity="1"
     inkscape:showpageshadow="0"
     inkscape:pageopacity="0"
     inkscape:pagecheckerboard="0"
     inkscape:deskcolor="#505050"
     inkscape:zoom="1.686"
     inkscape:cx="4.1518387"
     inkscape:cy="25.504152"
     inkscape:window-width="1452"
     inkscape:window-height="746"
     inkscape:window-x="1970"
     inkscape:window-y="122"
     inkscape:window-maximized="0"
     inkscape:current-layer="svg5" /><g
     id="g4"
     style="fill:#f2f2f2"
     transform="translate(-9.9975,-9.997)"><g
       id="g3"
       style="fill:#f2f2f2"><g
         id="g2"
         style="fill:#f2f2f2"><path
           d="m 78.28,21.72 -7.07,7.07 -13.899,13.899 -4.159,3.08 5.118,-0.771 H 69.14 L 29.692,84.458 C 26.84,82.788 24.162,80.729 21.72,78.278 6.09,62.658 6.09,37.338 21.72,21.716 37.34,6.09 62.66,6.09 78.28,21.72 Z m -15.82,1.68 1.45,-0.642 -1.602,-0.12 C 47.2,15.838 29.439,22.578 22.638,37.7 c -5.26,10.58 -2.52,25.479 6.15,33.51 l 13.9,-13.899 4.158,-3.08 -5.119,0.771 H 30.859 Z"
           id="path1"
           style="fill:#f2f2f2" /><path
           d="m 79.98,23.52 c 14,15.602 13.238,40.051 -1.7,54.762 -13.182,13.18 -33.261,15.25 -48.59,6.18 l 10.278,-6.18 c 15.62,5.529 32.771,-2.641 38.312,-18.25 4.06,-10.03 0.92,-23.94 -7.07,-31.24 z"
           id="path2"
           style="fill:#f2f2f2" /></g></g></g></svg>
