<?xml version="1.0" encoding="UTF-8" standalone="no"?>
<svg
   version="1.1"
   x="0px"
   y="0px"
   viewBox="0 0 80 65"
   enable-background="new 0 0 100 100"
   xml:space="preserve"
   id="svg4"
   sodipodi:docname="tsar.svg"
   inkscape:version="1.3.2 (091e20ef0f, 2023-11-25)"
   width="80"
   height="65"
   xmlns:inkscape="http://www.inkscape.org/namespaces/inkscape"
   xmlns:sodipodi="http://sodipodi.sourceforge.net/DTD/sodipodi-0.dtd"
   xmlns="http://www.w3.org/2000/svg"
   xmlns:svg="http://www.w3.org/2000/svg"><defs
     id="defs4" /><sodipodi:namedview
     id="namedview4"
     pagecolor="#505050"
     bordercolor="#eeeeee"
     borderopacity="1"
     inkscape:showpageshadow="0"
     inkscape:pageopacity="0"
     inkscape:pagecheckerboard="0"
     inkscape:deskcolor="#505050"
     inkscape:zoom="6.744"
     inkscape:cx="40.035587"
     inkscape:cy="47.523725"
     inkscape:window-width="1920"
     inkscape:window-height="1007"
     inkscape:window-x="1920"
     inkscape:window-y="36"
     inkscape:window-maximized="1"
     inkscape:current-layer="svg4" /><g
     id="g3"
     style="fill:#f2f2f2"
     transform="translate(-10,-15)"><g
       id="g2"
       style="fill:#f2f2f2"><g
         id="g1"
         style="fill:#f2f2f2"><polygon
           points="54.14,28.53 52.63,27.63 53.53,29.14 55,35 45,35 46.47,29.14 47.37,27.63 45.86,28.53 40,30 40,20 45.86,21.47 47.37,22.37 46.47,20.86 45,15 55,15 53.53,20.86 52.63,22.37 54.14,21.47 60,20 60,30 "
           id="polygon1"
           style="fill:#f2f2f2" /><path
           d="m 90,60 c 0,5.52 -4.48,10 -10,10 H 70 l 10,2.5 V 80 H 20 V 70 C 14.48,70 10,65.52 10,60 10,48.95 18.95,40 30,40 36.38,39.62 45.49,43.1 50,47.64 54.51,43.1 63.62,39.62 70,40 81.05,40 90,48.95 90,60 Z M 50,72.07 57.07,65 50,57.93 42.93,65 Z"
           id="path1"
           style="fill:#f2f2f2" /></g></g></g></svg>
